<?xml version="1.0" standalone="no"?>
<!DOCTYPE svg PUBLIC "-//W3C//DTD SVG 20010904//EN"
 "http://www.w3.org/TR/2001/REC-SVG-20010904/DTD/svg10.dtd">
<svg version="1.0" xmlns="http://www.w3.org/2000/svg"
 width="160.000000pt" height="160.000000pt" viewBox="0 0 160.000000 160.000000"
 preserveAspectRatio="xMidYMid meet">
<metadata>
Created by potrace 1.11, written by Peter Selinger 2001-2013
</metadata>
<g transform="translate(0.000000,160.000000) scale(0.100000,-0.100000)"
fill="#000000" stroke="none">
<path d="M571 1254 c-26 -33 -26 -55 -3 -85 37 -45 122 -16 122 41 0 31 -39
70 -70 70 -19 0 -36 -9 -49 -26z"/>
<path d="M790 1170 c-25 -10 -89 -42 -143 -69 -55 -28 -107 -51 -118 -51 -22
0 -34 37 -25 74 5 19 1 25 -19 28 -28 6 -35 -8 -40 -80 -3 -53 10 -89 34 -95
26 -6 89 23 186 84 165 103 215 119 258 82 15 -13 18 -14 12 -3 -30 55 -68 63
-145 30z"/>
<path d="M522 944 c-42 -19 -52 -109 -26 -225 l16 -70 31 7 c18 3 33 8 35 9 2
2 -4 27 -12 56 -32 106 -10 165 57 154 74 -13 246 -112 394 -227 63 -48 97
-66 52 -27 -109 95 -142 123 -224 184 -144 108 -270 162 -323 139z"/>
<path d="M492 495 c0 -16 2 -22 5 -12 2 9 2 23 0 30 -3 6 -5 -1 -5 -18z"/>
<path d="M105 499 c-3 -4 -4 -48 -4 -98 l1 -91 64 0 c36 0 63 4 60 8 -3 5 -28
7 -55 6 -28 -1 -51 3 -52 7 -7 60 -4 64 41 70 l45 5 -44 5 c-43 4 -44 5 -46
42 l-1 37 53 0 c29 0 53 3 53 8 0 9 -110 11 -115 1z"/>
<path d="M530 406 c0 -54 3 -96 7 -93 3 4 6 22 5 40 -1 31 2 34 42 45 50 13
65 42 40 79 -16 25 -15 25 -61 27 l-33 2 0 -100z m84 62 c16 -26 -4 -52 -41
-56 -29 -3 -30 -2 -30 38 0 40 1 41 30 38 17 -2 35 -11 41 -20z"/>
<path d="M260 495 c-5 -9 -5 -91 -1 -162 1 -14 7 -23 17 -23 12 0 14 3 6 13
-6 7 -12 51 -14 97 -2 47 -5 81 -8 75z"/>
<path d="M405 483 c1 -10 -4 -26 -13 -35 -13 -15 -13 -18 -1 -18 11 0 14 -12
13 -47 -2 -54 8 -73 40 -72 21 0 21 0 -1 9 -13 5 -23 14 -24 20 -5 63 -1 84
17 91 17 7 17 8 2 8 -12 1 -18 9 -18 25 0 14 -4 27 -9 30 -5 4 -8 -2 -6 -11z"/>
<path d="M985 470 c4 -14 1 -22 -10 -27 -16 -5 -16 -7 -1 -15 11 -6 15 -19 12
-41 -5 -47 9 -77 36 -76 l23 0 -22 11 c-19 9 -23 19 -23 60 0 36 4 48 15 48 8
0 15 4 15 10 0 5 -7 7 -15 4 -11 -5 -15 1 -15 20 0 14 -5 26 -11 26 -6 0 -8
-9 -4 -20z"/>
<path d="M330 381 c0 -41 3 -72 6 -69 9 10 11 116 2 130 -4 7 -8 -19 -8 -61z"/>
<path d="M696 433 c-14 -7 -26 -19 -27 -26 0 -7 -2 -20 -4 -29 -2 -10 6 -29
17 -43 34 -44 99 -28 113 28 15 57 -45 98 -99 70z m67 -15 c27 -20 28 -53 4
-76 -35 -32 -87 -12 -87 34 0 45 47 68 83 42z"/>
<path d="M855 438 c-48 -27 -39 -54 21 -69 49 -13 53 -19 25 -36 -14 -9 -24
-8 -46 3 -37 19 -41 18 -20 -6 21 -23 53 -26 79 -7 31 23 16 51 -32 61 -43 9
-49 21 -19 40 12 8 22 7 37 -2 23 -14 30 -15 30 -4 0 5 -11 14 -25 20 -30 14
-25 14 -50 0z"/>
<path d="M1239 450 c-6 -21 -3 -133 3 -136 5 -3 8 15 8 40 0 51 19 76 56 76
14 0 22 4 19 10 -7 11 -33 9 -54 -4 -8 -5 -16 -3 -22 5 -5 8 -9 12 -10 9z"/>
<path d="M1393 434 c-18 -9 -34 -23 -36 -32 -5 -26 13 -71 33 -82 24 -13 57
-13 65 -1 3 5 -8 9 -23 9 -34 -1 -52 8 -52 27 0 9 13 13 38 13 83 0 82 -1 71
31 -6 15 -21 33 -35 40 -30 13 -22 14 -61 -5z m75 -31 c14 -23 14 -23 -41 -23
-50 0 -56 2 -50 18 15 39 66 42 91 5z"/>
<path d="M1066 394 c1 -26 9 -53 19 -65 19 -20 70 -26 80 -9 5 8 11 7 21 -1
12 -10 14 -1 14 55 0 36 -4 66 -8 66 -5 0 -8 -16 -7 -35 3 -44 -26 -86 -56
-80 -36 7 -49 26 -49 71 0 24 -4 44 -8 44 -5 0 -8 -20 -6 -46z"/>
</g>
</svg>
